#!OML:ASF H:\Martial Arts Walks\Project 1\Capture day 1\Session 1\male.ASF
:FULLY-SPECIFIED
:DEGREES
2664
root -4.17475 14.1868 -44.1555 6.48182 -22.365 -8.74419
lowerback 11.5894 1.93103 1.8509
upperback -2.08499 3.07457 2.64588
thorax -8.79916 1.46779 1.19439
lowerneck -1.41267 -7.85189 -9.21426
upperneck 9.26751 -10.9137 8.11511
head 3.94568 -5.4155 3.46092
rclavicle -3.41164e-014 -1.13307e-014
rhumerus -44.8433 17.3027 -80.7928
rradius 46.9432
rwrist 12.2393
rhand -2.92579 -47.152
rfingers 7.12502
rthumb 22.7852 -75.8263
lclavicle -3.41164e-014 -1.13307e-014
lhumerus -27.9066 -4.2433 80.5412
lradius 27.6252
lwrist -9.26577
lhand -27.4105 32.0186
lfingers 7.12502
lthumb -0.816546 61.9968
rfemur -1.13512 4.50488 19.0115
rtibia 62.0428
rfoot -25.2882 -28.086
rtoes -27.2295
lfemur -64.7868 19.0388 -11.7386
ltibia 65.2639
lfoot -0.173106 6.48864
ltoes 19.239
2665
root -4.20255 14.218 -44.2627 6.30203 -22.107 -8.52073
lowerback 11.5635 1.86646 1.73421
upperback -2.12886 2.96968 2.61568
thorax -8.83463 1.42212 1.24805
lowerneck -1.14491 -7.84681 -9.39819
upperneck 9.19115 -10.9195 8.15048
head 3.89091 -5.43008 3.51215
rclavicle -2.65874e-015 -5.96354e-015
rhumerus -45.0386 17.7423 -81.0237
rradius 47.2007
rwrist 12.0779
rhand -3.12231 -47.0547
rfingers 7.12502
rthumb 22.5966 -75.7521
lclavicle -2.65874e-015 -5.96354e-015
lhumerus -28.4112 -3.85898 80.4149
lradius 27.9233
lwrist -8.56166
lhand -24.0382 35.6798
lfingers 7.12502
lthumb 2.44048 65.6456
rfemur -1.2689 4.96612 19.2774
rtibia 62.1051
rfoot -25.0936 -28.3719
rtoes -28.1462
lfemur -64.2975 18.461 -11.5714
ltibia 64.0334
lfoot 0.662264 6.63781
ltoes 19.2648
2666
root -4.22857 14.2456 -44.3786 6.15633 -21.7031 -8.26869
lowerback 11.5299 1.81886 1.6729
upperback -2.12467 2.88917 2.53564
thorax -8.80771 1.38437 1.21338
lowerneck -0.811309 -7.92004 -9.56374
upperneck 8.90885 -11.0341 8.27558
head 3.77702 -5.49637 3.5867
rclavicle 2.7892e-014 1.47101e-014
rhumerus -45.0929 17.8769 -81.1144
rradius 47.4586
rwrist 12.0046
rhand -2.78355 -47.3442
rfingers 7.12502
rthumb 22.9217 -76.0017
lclavicle 2.7892e-014 1.47101e-014
lhumerus -28.8137 -3.75369 80.3644
lradius 28.3524
lwrist -7.69178
lhand -27.6033 33.319
lfingers 7.12502
lthumb -1.00275 63.2964
rfemur -1.44067 5.25343 19.5422
rtibia 62.1256
rfoot -25.4071 -28.4265
rtoes -28.6356
lfemur -63.8903 17.7108 -11.4316
ltibia 62.7194
lfoot 1.67477 6.78816
ltoes 18.7833
2667
root -4.25586 14.2779 -44.4927 6.0245 -21.483 -8.07941
lowerback 11.4593 1.83741 1.64113
upperback -2.11437 2.90189 2.47869
thorax -8.75401 1.39111 1.17021
lowerneck -0.70006 -8.13742 -9.24312
upperneck 8.66933 -11.3094 8.02296
head 3.67955 -5.63411 3.45216
rclavicle 1.41883e-014 0
rhumerus -45.2153 18.0686 -81.199
rradius 47.8282
rwrist 11.8006
rhand -2.88747 -47.25
rfingers 7.12502
rthumb 22.822 -75.9198
lclavicle 1.41883e-014 0
lhumerus -29.1341 -3.32815 80.2141
lradius 28.8811
lwrist -5.93456
lhand -26.2566 34.9935
lfingers 7.12502
lthumb 0.297957 64.973
rfemur -1.59973 5.66145 19.844
rtibia 62.0792
rfoot -25.8024 -28.4821
rtoes -29.1191
lfemur -63.3516 17.0882 -11.1772
ltibia 61.3244
lfoot 2.65562 7.01216
ltoes 18.7504
2668
root -4.28464 14.3127 -44.616 5.87517 -21.1226 -7.84153
lowerback 11.4564 1.81776 1.5729
upperback -2.13218 2.86015 2.40311
thorax -8.77006 1.37223 1.13574
lowerneck -0.858581 -8.23237 -9.19033
upperneck 8.74849 -11.4209 7.91374
head 3.73037 -5.68701 3.39541
rclavicle -7.19725e-014 -1.66979e-014
rhumerus -45.2969 18.1687 -81.2792
rradius 48.1008
rwrist 11.7343
rhand -3.42089 -46.841
rfingers 7.12502
rthumb 22.31 -75.573
lclavicle -7.19725e-014 -1.66979e-014
lhumerus -29.7315 -3.16182 80.1633
lradius 29.478
lwrist -5.13223
lhand -26.3354 35.268
lfingers 7.12502
lthumb 0.221798 65.2476
rfemur -1.75712 5.80649 20.1099
rtibia 61.9881
rfoot -25.8278 -28.9352
rtoes -29.9289
lfemur -62.7854 16.2962 -10.9379
ltibia 59.8086
lfoot 3.74495 7.18523
ltoes 18.2525
2669
root -4.31271 14.3476 -44.7425 5.77419 -20.9042 -7.70286
lowerback 11.3946 1.85117 1.58047
upperback -2.09305 2.8976 2.34425
thorax -8.68844 1.38901 1.06392
lowerneck -0.551161 -8.31622 -9.42938
upperneck 8.46056 -11.554 8.13692
head 3.63138 -5.76058 3.5094
rclavicle -2.64259e-014 1.53064e-014
rhumerus -45.2918 18.307 -81.3482
rradius 48.3917
rwrist 11.6314
rhand -3.17493 -47.7169
rfingers 7.12502
rthumb 22.5461 -76.4204
lclavicle -2.64259e-014 1.53064e-014
lhumerus -30.15 -2.99582 80.1279
lradius 29.9228
lwrist -4.35043
lhand -26.9302 34.7608
lfingers 7.12502
lthumb -0.352629 64.7403
rfemur -1.97211 6.03534 20.4727
rtibia 61.8584
rfoot -26.1011 -29.2376
rtoes -30.4225
lfemur -62.168 15.5725 -10.5261
ltibia 58.2088
lfoot 4.85973 7.44744
ltoes 18.1222
